<svg width="84" height="120" viewBox="0 0 84 120" fill="none" xmlns="http://www.w3.org/2000/svg">
<path d="M2 64.4719V78.4826C2 100.307 19.6925 118 41.5174 118V118C63.3423 118 81.0349 100.307 81.0349 78.4826V64.4719" stroke="white" stroke-width="4"/>
<path d="M18.1662 78.1233V52.7962C18.1662 48.3321 14.5473 44.7131 10.0831 44.7131V44.7131C5.61893 44.7131 2 48.3321 2 52.7963V78.1233" stroke="white" stroke-width="4"/>
<path d="M81.0349 65.5496V60.6998C81.0349 56.434 77.5768 52.9759 73.311 52.9759V52.9759C69.0452 52.9759 65.5872 56.434 65.5872 60.6998V61.3584" stroke="white" stroke-width="4"/>
<path d="M65.5871 60.8794V54.4129C65.5871 50.0479 62.0486 46.5094 57.6836 46.5094V46.5094C53.3187 46.5094 49.7802 50.0479 49.7802 54.4129V55.4906" stroke="white" stroke-width="4"/>
<path d="M49.7802 56.2091V49.7426C49.7802 45.3776 46.2417 41.8391 41.8767 41.8391V41.8391C37.5117 41.8391 33.9732 45.3776 33.9732 49.7426V51" stroke="white" stroke-width="4"/>
<path d="M33.9732 52.2574V10.5845C33.9732 6.21948 30.4347 2.68097 26.0697 2.68097V2.68097C21.7047 2.68097 18.1662 6.21948 18.1662 10.5845V52.2574" stroke="white" stroke-width="4"/>
</svg>
