<svg width="141" height="114" viewBox="0 0 141 114" fill="none" xmlns="http://www.w3.org/2000/svg">
<g filter="url(#filter0_i_102_7)">
<path d="M69.0909 104H57.2727L91.4545 10.9091H103.091L137.273 104H125.455L97.6364 25.6364H96.9091L69.0909 104ZM73.4545 67.6364H121.091V77.6364H73.4545V67.6364Z" fill="#3B82F6"/>
<path d="M11.2727 10.9091H24.7273L56.3636 88.1818H57.4545L89.0909 10.9091H102.545V104H92V33.2727H91.0909L62 104H51.8182L22.7273 33.2727H21.8182V104H11.2727V10.9091Z" fill="#FB923C"/>
<path d="M62.5455 10.9091V104H51.2727V10.9091H62.5455Z" fill="#FDE047"/>
<path d="M11.2727 104V10.9091H22.5455V94H65.8182V104H11.2727Z" fill="#EF4444"/>
</g>
<defs>
<filter id="filter0_i_102_7" x="11.2727" y="10.9091" width="126" height="97.0909" filterUnits="userSpaceOnUse" color-interpolation-filters="sRGB">
<feFlood flood-opacity="0" result="BackgroundImageFix"/>
<feBlend mode="normal" in="SourceGraphic" in2="BackgroundImageFix" result="shape"/>
<feColorMatrix in="SourceAlpha" type="matrix" values="0 0 0 0 0 0 0 0 0 0 0 0 0 0 0 0 0 0 127 0" result="hardAlpha"/>
<feOffset dy="4"/>
<feGaussianBlur stdDeviation="2"/>
<feComposite in2="hardAlpha" operator="arithmetic" k2="-1" k3="1"/>
<feColorMatrix type="matrix" values="0 0 0 0 0 0 0 0 0 0 0 0 0 0 0 0 0 0 0.25 0"/>
<feBlend mode="normal" in2="shape" result="effect1_innerShadow_102_7"/>
</filter>
</defs>
</svg>
